<mxfile host="65bd71144e">
    <diagram id="KS1nAZN_LTNEMH9pntbv" name="商品検索">
        <mxGraphModel dx="346" dy="467" grid="1" gridSize="10" guides="1" tooltips="1" connect="1" arrows="1" fold="1" page="1" pageScale="1" pageWidth="827" pageHeight="1169" math="0" shadow="0">
            <root>
                <mxCell id="0"/>
                <mxCell id="1" parent="0"/>
                <mxCell id="28" value="ユーザー" style="shape=umlActor;verticalLabelPosition=bottom;verticalAlign=top;" parent="1" vertex="1">
                    <mxGeometry x="37" y="75" width="30" height="60" as="geometry"/>
                </mxCell>
                <mxCell id="37" style="endArrow=open;entryX=-0.006;entryY=0.499;entryDx=0;entryDy=0;entryPerimeter=0;" parent="1" source="28" target="42" edge="1">
                    <mxGeometry relative="1" as="geometry">
                        <mxPoint x="230" y="84.15300546448088" as="targetPoint"/>
                    </mxGeometry>
                </mxCell>
                <mxCell id="46" value="検索条件を入力する" style="edgeLabel;html=1;align=center;verticalAlign=middle;resizable=0;points=[];" vertex="1" connectable="0" parent="37">
                    <mxGeometry x="0.0438" y="-1" relative="1" as="geometry">
                        <mxPoint as="offset"/>
                    </mxGeometry>
                </mxCell>
                <mxCell id="38" style="endArrow=open;exitX=0.985;exitY=0.459;exitDx=0;exitDy=0;exitPerimeter=0;entryX=0.001;entryY=0.522;entryDx=0;entryDy=0;entryPerimeter=0;" parent="1" source="42" target="43" edge="1">
                    <mxGeometry relative="1" as="geometry">
                        <mxPoint x="306" y="80.99778662382852" as="sourcePoint"/>
                        <mxPoint x="430.0052067765678" y="84.34793927775144" as="targetPoint"/>
                    </mxGeometry>
                </mxCell>
                <mxCell id="47" value="条件を送信する" style="edgeLabel;html=1;align=center;verticalAlign=middle;resizable=0;points=[];" vertex="1" connectable="0" parent="38">
                    <mxGeometry x="-0.1566" y="1" relative="1" as="geometry">
                        <mxPoint as="offset"/>
                    </mxGeometry>
                </mxCell>
                <mxCell id="39" style="endArrow=classic;startArrow=classic;entryX=0;entryY=0.5;entryDx=0;entryDy=0;" parent="1" target="44" edge="1">
                    <mxGeometry relative="1" as="geometry">
                        <mxPoint x="489.9944363880377" y="85.67403227838287" as="sourcePoint"/>
                        <mxPoint x="630.0075719334907" y="89.326012852438" as="targetPoint"/>
                    </mxGeometry>
                </mxCell>
                <mxCell id="48" value="商品を検索する" style="edgeLabel;html=1;align=center;verticalAlign=middle;resizable=0;points=[];" vertex="1" connectable="0" parent="39">
                    <mxGeometry x="0.0506" y="-3" relative="1" as="geometry">
                        <mxPoint as="offset"/>
                    </mxGeometry>
                </mxCell>
                <mxCell id="40" style="endArrow=open;entryX=1.01;entryY=0.429;entryDx=0;entryDy=0;entryPerimeter=0;exitX=0.076;exitY=0.725;exitDx=0;exitDy=0;exitPerimeter=0;" parent="1" target="45" edge="1" source="43">
                    <mxGeometry relative="1" as="geometry">
                        <mxPoint x="434.841082618022" y="104.06452124597081" as="sourcePoint"/>
                        <mxPoint x="306" y="201.31672776537005" as="targetPoint"/>
                    </mxGeometry>
                </mxCell>
                <mxCell id="49" value="結果を出力する" style="edgeLabel;html=1;align=center;verticalAlign=middle;resizable=0;points=[];" vertex="1" connectable="0" parent="40">
                    <mxGeometry x="-0.196" y="3" relative="1" as="geometry">
                        <mxPoint as="offset"/>
                    </mxGeometry>
                </mxCell>
                <mxCell id="41" style="endArrow=open;exitX=-0.012;exitY=0.492;exitDx=0;exitDy=0;exitPerimeter=0;" parent="1" source="45" target="28" edge="1">
                    <mxGeometry relative="1" as="geometry">
                        <mxPoint x="230" y="203.00546448087425" as="sourcePoint"/>
                    </mxGeometry>
                </mxCell>
                <mxCell id="50" value="検索結果を表示する" style="edgeLabel;html=1;align=center;verticalAlign=middle;resizable=0;points=[];" vertex="1" connectable="0" parent="41">
                    <mxGeometry x="-0.1501" y="3" relative="1" as="geometry">
                        <mxPoint as="offset"/>
                    </mxGeometry>
                </mxCell>
                <mxCell id="42" value="検索画面" style="shape=umlBoundary;whiteSpace=wrap;html=1;fillColor=#d5e8d4;strokeColor=#82b366;" parent="1" vertex="1">
                    <mxGeometry x="230" y="45" width="100" height="80" as="geometry"/>
                </mxCell>
                <mxCell id="43" value="検索処理" style="ellipse;shape=umlControl;whiteSpace=wrap;html=1;fillColor=#f8cecc;strokeColor=#b85450;" parent="1" vertex="1">
                    <mxGeometry x="454" y="40" width="70" height="80" as="geometry"/>
                </mxCell>
                <mxCell id="44" value="商品データベース" style="ellipse;shape=umlEntity;whiteSpace=wrap;html=1;fillColor=#dae8fc;strokeColor=#6c8ebf;" parent="1" vertex="1">
                    <mxGeometry x="673" y="46" width="80" height="80" as="geometry"/>
                </mxCell>
                <mxCell id="45" value="検索結果画面" style="shape=umlBoundary;whiteSpace=wrap;html=1;fillColor=#d5e8d4;strokeColor=#82b366;" parent="1" vertex="1">
                    <mxGeometry x="230" y="170" width="100" height="80" as="geometry"/>
                </mxCell>
            </root>
        </mxGraphModel>
    </diagram>
</mxfile>